# xmcd CD Database Entry
#
# Track frame offsets:
# 150
# 14971
# 31143
# 47769
# 63197
# 75244
# 91517
# 107929
# 123104
# 137446
# 153472
# 167607
# 183393
# 200234
# 216312
# 231647
# 249293
# 264619
# 280913
# 297276
# 313178
# 329764
# 344780
#
# Disc length: 4795 seconds
#
# Revision: 6
# Processed by: cddbd v1.4b41PL2 Copyright (c) Steve Scherf et al.
# Submitted via: tcd 2.0b
#
DISCID=5c12b917
DTITLE=Various Artist - Wild Volume 12 - Disc 1
DYEAR=1900
DGENRE=
TTITLE0=Darude - Feel The Beat
TTITLE1=Chicane feat Bryan Adams - Don't Give Up
TTITLE2=Madison Avenue - Everything You Need
TTITLE3=Modjo - Lady (Hear Me Tonight)
TTITLE4=Bob Sinclair - I Feel For You
TTITLE5=Kylie Minogue - On A Night Like This
TTITLE6=DJ Aligator Project - Lollipop
TTITLE7=DJ Hookman and Many More feat Base of Drum - Calinca
TTITLE8=Carlotta Chadwick - Be There
TTITLE9=Sam Gee feat Barbara - Send Me An Angel
TTITLE10=Amen vs Alex K - I Can't Wait
TTITLE11=Mass Medium - Feel Like Dancing
TTITLE12=Rob Brizzi feat Anna Rizzo - Lover That You Are
TTITLE13=Klubbheads - Big Bass Bomb
TTITLE14=Bad Habbit Boys - Rock Ya
TTITLE15=666 - Dance 2 Disco
TTITLE16=Floorfilla - Anthem #4
TTITLE17=ATB - The Summer
TTITLE18=Sash! - With My Own Eyes
TTITLE19=Matt Darey presents Mash Up - Beautiful
TTITLE20=Quench - Embrace The Sunshine
TTITLE21=Afro Medusa - Pasilda
TTITLE22=Trilogy - Long Hot Summer
EXTD=
EXTT0=
EXTT1=
EXTT2=
EXTT3=
EXTT4=
EXTT5=
EXTT6=
EXTT7=
EXTT8=
EXTT9=
EXTT10=
EXTT11=
EXTT12=
EXTT13=
EXTT14=
EXTT15=
EXTT16=
EXTT17=
EXTT18=
EXTT19=
EXTT20=
EXTT21=
EXTT22=
PLAYORDER=
